<?xml version="1.0" encoding="iso-8859-1"?>
<!-- Generator: Adobe Illustrator 19.0.0, SVG Export Plug-In . SVG Version: 6.00 Build 0)  -->
<svg version="1.1" id="Layer_1" xmlns="http://www.w3.org/2000/svg" xmlns:xlink="http://www.w3.org/1999/xlink" x="0px" y="0px"
	 viewBox="0 0 512 512" style="enable-background:new 0 0 512 512;" xml:space="preserve">
<rect x="236.102" style="fill:#CAD8DB;" width="8.421" height="65.577"/>
<path style="fill:#616C7C;" d="M385.69,291.748l4.812-56.543l4.812,56.543c0.226,2.658-1.744,4.995-4.403,5.221
	c-2.658,0.226-4.995-1.744-5.221-4.403C385.667,292.299,385.669,292.008,385.69,291.748z"/>
<rect x="100.881" y="245.239" style="fill:#FEC95B;" width="55.592" height="257.738"/>
<rect x="320.976" y="289.739" style="fill:#54A6E2;" width="92.02" height="213.238"/>
<g>
	<path style="fill:#DCEBEF;" d="M267.819,189.002h-54.994c-11.223,0-20.322,9.099-20.322,20.322v293.655h95.637V209.322
		C288.14,198.099,279.042,189.002,267.819,189.002z"/>
	<path style="fill:#DCEBEF;" d="M272.476,147.386c0-7.162-2.344-13.774-6.304-19.119v-16.984c0-6.964-2.768-13.265-7.229-17.913
		h0.011V78.103c0-5.149-2.081-9.805-5.45-13.173c-3.381-3.381-8.036-5.462-13.185-5.462c-10.286,0-18.635,8.349-18.635,18.635V93.37
		h0.018c-4.473,4.647-7.236,10.952-7.236,17.913v16.984c-3.959,5.345-6.304,11.958-6.304,19.119v41.613h64.314L272.476,147.386
		L272.476,147.386z"/>
</g>
<g>
	<rect x="192.504" y="208.125" style="fill:#616C7C;" width="95.641" height="12.03"/>
	<rect x="192.504" y="236.998" style="fill:#616C7C;" width="95.641" height="12.03"/>
	<rect x="192.504" y="265.871" style="fill:#616C7C;" width="95.641" height="12.03"/>
	<rect x="192.504" y="294.744" style="fill:#616C7C;" width="95.641" height="12.03"/>
	<rect x="192.504" y="323.617" style="fill:#616C7C;" width="95.641" height="12.03"/>
	<rect x="192.504" y="352.49" style="fill:#616C7C;" width="95.641" height="12.03"/>
	<rect x="192.504" y="381.362" style="fill:#616C7C;" width="95.641" height="12.03"/>
	<rect x="192.504" y="410.223" style="fill:#616C7C;" width="95.641" height="12.03"/>
	<rect x="192.504" y="439.096" style="fill:#616C7C;" width="95.641" height="12.03"/>
	<rect x="192.504" y="467.969" style="fill:#616C7C;" width="95.641" height="12.03"/>
	<rect x="100.881" y="267.868" style="fill:#616C7C;" width="55.857" height="12.03"/>
	<rect x="100.881" y="293.276" style="fill:#616C7C;" width="55.857" height="12.03"/>
	<rect x="100.881" y="318.684" style="fill:#616C7C;" width="55.857" height="12.03"/>
	<rect x="100.881" y="344.092" style="fill:#616C7C;" width="55.857" height="12.03"/>
	<rect x="100.881" y="369.5" style="fill:#616C7C;" width="55.857" height="12.03"/>
	<rect x="100.881" y="394.921" style="fill:#616C7C;" width="55.857" height="12.03"/>
	<rect x="100.881" y="420.329" style="fill:#616C7C;" width="55.857" height="12.03"/>
	<rect x="100.881" y="445.737" style="fill:#616C7C;" width="55.857" height="12.03"/>
	<rect x="100.881" y="468.595" style="fill:#616C7C;" width="55.857" height="12.03"/>
	<rect x="321.806" y="309.06" style="fill:#616C7C;" width="90.348" height="14.436"/>
	<rect x="321.806" y="339.533" style="fill:#616C7C;" width="90.348" height="14.436"/>
	<rect x="321.806" y="369.994" style="fill:#616C7C;" width="90.348" height="14.436"/>
	<rect x="321.806" y="400.455" style="fill:#616C7C;" width="90.348" height="14.436"/>
	<rect x="321.806" y="430.915" style="fill:#616C7C;" width="90.348" height="14.436"/>
	<rect x="321.806" y="461.376" style="fill:#616C7C;" width="90.348" height="14.436"/>
	<rect x="56.898" y="493.954" style="fill:#616C7C;" width="398.205" height="18.046"/>
	<path style="fill:#616C7C;" d="M222.574,166.144L222.574,166.144c-2.325,0-4.211,1.885-4.211,4.211v18.647h8.421v-18.647
		C226.784,168.029,224.899,166.144,222.574,166.144z"/>
	<path style="fill:#616C7C;" d="M258.063,166.144L258.063,166.144c-2.325,0-4.211,1.885-4.211,4.211v18.647h8.421v-18.647
		C262.274,168.029,260.389,166.144,258.063,166.144z"/>
	<path style="fill:#616C7C;" d="M240.318,166.144L240.318,166.144c-2.325,0-4.211,1.885-4.211,4.211v18.647h8.421v-18.647
		C244.529,168.029,242.644,166.144,240.318,166.144z"/>
	<path style="fill:#616C7C;" d="M228.177,112.496L228.177,112.496c-1.592,0-2.881,1.29-2.881,2.881v12.758h5.761v-12.758
		C231.059,113.786,229.768,112.496,228.177,112.496z"/>
	<path style="fill:#616C7C;" d="M252.459,112.496L252.459,112.496c-1.592,0-2.881,1.29-2.881,2.881v12.758h5.761v-12.758
		C255.341,113.786,254.051,112.496,252.459,112.496z"/>
	<path style="fill:#616C7C;" d="M240.318,112.496L240.318,112.496c-1.592,0-2.881,1.29-2.881,2.881v12.758h5.761v-12.758
		C243.2,113.786,241.91,112.496,240.318,112.496z"/>
</g>
<g>
</g>
<g>
</g>
<g>
</g>
<g>
</g>
<g>
</g>
<g>
</g>
<g>
</g>
<g>
</g>
<g>
</g>
<g>
</g>
<g>
</g>
<g>
</g>
<g>
</g>
<g>
</g>
<g>
</g>
</svg>
