<?xml version="1.0"?>
<svg xmlns="http://www.w3.org/2000/svg" height="512px" viewBox="0 -32 419.84031 419" width="512px" class=""><g><path d="m252.585938 201.808594c0 69.75-56.542969 126.292968-126.292969 126.292968s-126.292969-56.542968-126.292969-126.292968 56.542969-126.296875 126.292969-126.296875 126.292969 56.546875 126.292969 126.296875zm0 0" fill="#e7d1c4" data-original="#E7D1C4" class="active-path" style="fill:#B5D2E2" data-old_color="#e7d1c4"/><path d="m248.140625 116.472656-159.550781 232.109375h250.070312l-89.976562-231.34375zm0 0" fill="#ffce56" data-original="#FFCE56" class=""/><path d="m338.660156 355.40625h-250.070312c-2.535156 0-4.863282-1.402344-6.042969-3.648438-1.179687-2.242187-1.019531-4.953124.414063-7.046874l159.554687-232.105469c1.265625-1.839844 3.34375-2.941407 5.578125-2.957031h.046875c2.214844 0 4.292969 1.070312 5.574219 2.882812l.539062.761719c.320313.457031.585938.949219.785156 1.46875l89.980469 231.34375c.820313 2.097656.546875 4.464843-.726562 6.328125-1.273438 1.859375-3.378907 2.972656-5.632813 2.972656zm-237.09375-13.652344h227.113282l-82.066407-211.003906zm0 0" fill="#4c241d" data-original="#4C241D" class=""/><path d="m123.15625 210.9375-92.4375 137.644531h154.179688l-60.832032-136.460937zm0 0" fill="#ffce56" data-original="#FFCE56" class=""/><path d="m184.898438 355.40625h-154.179688c-2.519531 0-4.839844-1.386719-6.023438-3.617188-1.1875-2.222656-1.046874-4.921874.359376-7.015624l92.4375-137.640626c1.230468-1.828124 3.261718-2.953124 5.460937-3.019531 2.179687-.101562 4.300781.9375 5.632813 2.679688l.90625 1.1875c.320312.417969.59375.878906.808593 1.363281l60.832031 136.457031c.941407 2.113281.753907 4.554688-.503906 6.496094-1.261718 1.941406-3.414062 3.109375-5.730468 3.109375zm-141.371094-13.652344h130.851562l-52.207031-117.105468zm0 0" fill="#4c241d" data-original="#4C241D" class=""/><path d="m124.066406 210.714844 60.832032 134.453125h43.792968zm0 0" fill="#fc8c29" data-original="#FC8C29" class=""/><path d="m228.691406 351.992188h-43.792968c-2.675782 0-5.113282-1.570313-6.21875-4.011719l-60.832032-134.449219c-1.425781-3.152344-.265625-6.871094 2.691406-8.65625 2.96875-1.789062 6.792969-1.078125 8.914063 1.648438l104.628906 134.449218c1.601563 2.0625 1.890625 4.851563.746094 7.195313-1.148437 2.339843-3.527344 3.824219-6.136719 3.824219zm-39.382812-13.652344h25.425781l-60.75-78.0625zm0 0" fill="#4c241d" data-original="#4C241D" class=""/><path d="m248.683594 117.226562 89.976562 231.355469h74.351563zm0 0" fill="#fc8c29" data-original="#FC8C29" class=""/><path d="m413.011719 355.40625h-74.351563c-2.8125 0-5.339844-1.726562-6.359375-4.351562l-89.980469-231.355469c-1.253906-3.210938.085938-6.851563 3.117188-8.484375 3.046875-1.648438 6.816406-.746094 8.808594 2.058594l164.332031 231.351562c1.480469 2.085938 1.671875 4.816406.5 7.085938-1.171875 2.269531-3.511719 3.695312-6.066406 3.695312zm-69.683594-13.652344h56.464844l-124.792969-175.679687zm0 0" fill="#4c241d" data-original="#4C241D" class=""/><path d="m238.933594 205.21875h-20.480469c-3.773437 0-6.828125-3.054688-6.828125-6.824219s3.054688-6.828125 6.828125-6.828125h20.480469c3.773437 0 6.828125 3.058594 6.828125 6.828125s-3.054688 6.824219-6.828125 6.824219zm0 0" fill="#4c241d" data-original="#4C241D" class=""/><path d="m225.28125 232.527344h-27.308594c-3.773437 0-6.824218-3.058594-6.824218-6.828125s3.050781-6.824219 6.824218-6.824219h27.308594c3.773438 0 6.824219 3.054688 6.824219 6.824219s-3.050781 6.828125-6.824219 6.828125zm0 0" fill="#4c241d" data-original="#4C241D" class=""/><path d="m273.066406 259.832031h-27.304687c-3.773438 0-6.828125-3.054687-6.828125-6.824219 0-3.769531 3.054687-6.828124 6.828125-6.828124h27.304687c3.773438 0 6.828125 3.058593 6.828125 6.828124 0 3.769532-3.054687 6.824219-6.828125 6.824219zm0 0" fill="#4c241d" data-original="#4C241D" class=""/><path d="m245.761719 293.96875h-27.308594c-3.773437 0-6.828125-3.058594-6.828125-6.828125s3.054688-6.828125 6.828125-6.828125h27.308594c3.773437 0 6.824219 3.058594 6.824219 6.828125s-3.050782 6.828125-6.824219 6.828125zm0 0" fill="#4c241d" data-original="#4C241D" class=""/><path d="m143.359375 321.273438h-27.304687c-3.773438 0-6.828126-3.054688-6.828126-6.828126 0-3.769531 3.054688-6.824218 6.828126-6.824218h27.304687c3.773437 0 6.828125 3.054687 6.828125 6.824218 0 3.773438-3.054688 6.828126-6.828125 6.828126zm0 0" fill="#4c241d" data-original="#4C241D" class=""/><path d="m122.878906 293.96875h-20.480468c-3.773438 0-6.824219-3.058594-6.824219-6.828125s3.050781-6.828125 6.824219-6.828125h20.480468c3.773438 0 6.828125 3.058594 6.828125 6.828125s-3.054687 6.828125-6.828125 6.828125zm0 0" fill="#4c241d" data-original="#4C241D" class=""/><path d="m109.226562 74.539062c0 15.617188-12.664062 28.28125-28.28125 28.28125-15.621093 0-28.285156-12.664062-28.285156-28.28125 0-15.621093 12.664063-28.285156 28.285156-28.285156 15.617188 0 28.28125 12.664063 28.28125 28.285156zm0 0" fill="#ffce56" data-original="#FFCE56" class=""/><g fill="#4c241d"><path d="m80.941406 109.648438c-19.363281 0-35.105468-15.753907-35.105468-35.109376 0-19.359374 15.746093-35.113281 35.105468-35.113281s35.113282 15.753907 35.113282 35.113281c0 19.355469-15.753907 35.109376-35.113282 35.109376zm0-56.570313c-11.828125 0-21.453125 9.628906-21.453125 21.457031s9.625 21.457032 21.453125 21.457032c11.832032 0 21.457032-9.625 21.457032-21.453126 0-11.832031-9.625-21.460937-21.457032-21.460937zm0 0" data-original="#4C241D" class=""/><path d="m81.921875 27.726562c-3.773437 0-6.828125-3.054687-6.828125-6.828124v-13.652344c0-3.769532 3.054688-6.824219 6.828125-6.824219s6.824219 3.054687 6.824219 6.824219v13.652344c0 3.773437-3.050782 6.828124-6.824219 6.828124zm0 0" data-original="#4C241D" class=""/><path d="m81.921875 157.433594c-3.773437 0-6.828125-3.058594-6.828125-6.828125v-13.652344c0-3.769531 3.054688-6.828125 6.828125-6.828125s6.824219 3.058594 6.824219 6.828125v13.652344c0 3.769531-3.050782 6.828125-6.824219 6.828125zm0 0" data-original="#4C241D" class=""/><path d="m27.308594 82.339844h-20.480469c-3.773437 0-6.828125-3.054688-6.828125-6.828125 0-3.769531 3.054688-6.824219 6.828125-6.824219h20.480469c3.773437 0 6.824218 3.054688 6.824218 6.824219 0 3.773437-3.050781 6.828125-6.824218 6.828125zm0 0" data-original="#4C241D" class=""/><path d="m157.011719 82.339844h-20.476563c-3.773437 0-6.828125-3.054688-6.828125-6.828125 0-3.769531 3.054688-6.824219 6.828125-6.824219h20.476563c3.773437 0 6.828125 3.054688 6.828125 6.824219 0 3.773437-3.054688 6.828125-6.828125 6.828125zm0 0" data-original="#4C241D" class=""/><path d="m41.8125 43.820312c-1.800781 0-3.589844-.707031-4.933594-2.105468l-9.4375-9.867188c-2.609375-2.722656-2.515625-7.046875.210938-9.652344 2.726562-2.59375 7.054687-2.507812 9.652344.214844l9.441406 9.863282c2.605468 2.726562 2.511718 7.046874-.214844 9.65625-1.316406 1.261718-3.015625 1.890624-4.71875 1.890624zm0 0" data-original="#4C241D" class=""/><path d="m131.46875 137.554688c-1.800781 0-3.59375-.707032-4.933594-2.105469l-9.441406-9.867188c-2.605469-2.722656-2.511719-7.046875.214844-9.652343 2.71875-2.601563 7.054687-2.507813 9.652344.210937l9.4375 9.867187c2.609374 2.726563 2.515624 7.046876-.210938 9.652344-1.320312 1.261719-3.019531 1.894532-4.71875 1.894532zm0 0" data-original="#4C241D" class=""/><path d="m122.027344 43.820312c-1.699219 0-3.394532-.628906-4.722656-1.890624-2.726563-2.609376-2.816407-6.933594-.210938-9.65625l9.4375-9.863282c2.605469-2.730468 6.914062-2.816406 9.652344-.214844 2.730468 2.605469 2.820312 6.929688.214844 9.652344l-9.441407 9.867188c-1.335937 1.398437-3.128906 2.105468-4.929687 2.105468zm0 0" data-original="#4C241D" class=""/><path d="m32.375 137.554688c-1.699219 0-3.394531-.628907-4.722656-1.894532-2.726563-2.605468-2.820313-6.929687-.210938-9.652344l9.4375-9.867187c2.605469-2.726563 6.921875-2.816406 9.652344-.210937 2.726562 2.605468 2.820312 6.929687.214844 9.652343l-9.441406 9.867188c-1.335938 1.398437-3.128907 2.105469-4.929688 2.105469zm0 0" data-original="#4C241D" class=""/></g></g> </svg>
